<?xml version="1.0" encoding="utf-8"?>
<!-- Generator: Adobe Illustrator 26.0.3, SVG Export Plug-In . SVG Version: 6.00 Build 0)  -->
<svg version="1.0" id="katman_1" xmlns="http://www.w3.org/2000/svg" xmlns:xlink="http://www.w3.org/1999/xlink" x="0px" y="0px"
	 viewBox="0 0 600 450" style="enable-background:new 0 0 600 450;" xml:space="preserve">
<style type="text/css">
	.st0{fill:#221F20;}
</style>
<path class="st0" d="M163.1,166.1h-79c-10.9,0-19.8,8.9-19.8,19.8l0,0v79c0,10.9,8.9,19.8,19.8,19.8h79c10.9,0,19.8-8.9,19.8-19.8
	c0,0,0,0,0,0v-79C182.9,174.9,174,166.1,163.1,166.1C163.1,166.1,163.1,166.1,163.1,166.1z M161.3,256.9c0,3.5-2.8,6.3-6.3,6.3H92.1
	c-3.5,0-6.3-2.8-6.3-6.3v-63c0-3.5,2.8-6.3,6.3-6.3h63c3.5,0,6.3,2.8,6.3,6.3L161.3,256.9z"/>
<path class="st0" d="M111,241.5c-2,0-3.6-1.6-3.6-3.6c0,0,0,0,0,0v-25.1c0-2,1.6-3.6,3.6-3.6c0,0,0,0,0,0h25.2c2,0,3.6,1.6,3.6,3.6
	c0,0,0,0,0,0v25.1c0,2-1.6,3.6-3.6,3.6c0,0,0,0,0,0L111,241.5z"/>
<path class="st0" d="M243.2,220.1c-3.7-1-7.2-1.9-9.8-3.1c-5-2.2-7.3-5.3-7.3-9.7c0-8.3,8.1-12.1,16.1-12.1c7.6,0,14.3,3.1,18.8,8.9
	l0.3,0.4l6.4-5l-0.3-0.4c-5.9-7.6-14.7-11.7-24.8-11.7c-6.7,0-12.8,1.8-17.3,5.1c-5,3.7-7.6,9-7.6,15.3c0,14.7,13.9,18.3,25,21.2
	c11.3,3,18.2,5.2,18.2,13.8c0,8.5-6.8,13.9-17.4,13.9c-5.2,0-14.9-1.4-21-10.7l-0.3-0.4l-6.8,4.9l0.3,0.4
	c5.7,8.7,15.7,13.7,27.3,13.7c15.8,0,26.3-8.9,26.3-22.1C269.2,227.2,254.8,223.2,243.2,220.1z"/>
<path class="st0" d="M320.6,209.1v7.9c-4.4-5.9-10.9-9.2-18.4-9.2c-14.4,0-24.5,11.6-24.5,28.3s10.1,28.2,24.5,28.2
	c7.6,0,14.1-3.2,18.4-9.2v29.5h7.6v-75.6H320.6z M302.7,256.9c-8.3,0-17.1-5.5-17.1-20.9c0-10.1,4.5-20.8,17.1-20.8
	c10.8,0,17.8,8.2,17.8,20.8C320.6,248.7,313.6,256.9,302.7,256.9z"/>
<path class="st0" d="M378.3,209.1v29.8c0,10.4-7.2,18-17,18c-8.2,0-12.2-4.9-12.2-14.8v-33h-7.6v34.6c0,12.9,7,20.7,18.8,20.7
	c7.3,0,13.7-3.1,17.9-8.8v7.6h7.6v-54L378.3,209.1z"/>
<path class="st0" d="M420.9,207.8c-7.6,0-15.2,2.5-20.8,6.9l-0.4,0.3l4,6l0.4-0.4c4.7-4.1,11.6-5.5,16.6-5.5
	c2.8,0,11.9,0.5,11.9,7.5c0,6.2-7.5,7.3-14.8,8.5c-0.9,0.1-1.8,0.3-2.7,0.4c-5.3,0.9-17.8,3-17.8,16.2c0,10.2,7.2,16.6,18.8,16.6
	c7.1,0,12.7-2.4,16.5-7.2v6h7.6v-39.2C440.1,213.8,432.9,207.8,420.9,207.8z M416.8,256.9c-3.5,0-11.7-1-11.7-9.6
	c0-6,3.8-7.8,11.3-9.2l2.4-0.4c4.7-0.8,10-1.7,13.7-4.1v7.8C432.5,252.9,424.4,256.9,416.8,256.9z"/>
<path class="st0" d="M484,210.1c-1.8-1.3-4.6-2.1-7.6-2.1c-6.1,0.1-11.8,3-15.4,7.9v-6.9h-7.6v54h7.6v-28.9
	c0-12.8,7.2-18.5,14.3-18.5c2.2,0,4.6,0.5,6.1,1.3l0.5,0.3l2.4-6.9L484,210.1z"/>
<path class="st0" d="M511.6,207.8c-14.9,0-25.3,11.7-25.3,28.4c0,16.8,10.4,28.1,25.9,28.1c11,0,17.6-5.3,21.3-9.8l0.3-0.4l-5.5-4.9
	l-0.3,0.4c-3.6,4.7-9.1,7.2-15.4,7.2c-11,0-18.2-7.7-18.3-19.6h41.4l0-0.4c0.1-1.3,0.2-2.6,0.2-3.9
	C535.9,218.2,525.9,207.8,511.6,207.8z M494.5,230.7c1-9.5,7.6-15.6,16.8-15.6c11.2,0,15.9,8,16.5,15.6H494.5z"/>
</svg>
